<?xml version="1.0" encoding="UTF-8" standalone="no"?><!DOCTYPE svg PUBLIC "-//W3C//DTD SVG 1.1//EN" "http://www.w3.org/Graphics/SVG/1.1/DTD/svg11.dtd"><!-- Generated by graphviz version 2.40.1 (20161225.0304)
 --><!-- Title: flowchart Pages: 1 --><svg xmlns="http://www.w3.org/2000/svg" xmlns:xlink="http://www.w3.org/1999/xlink" width="342pt" height="802pt" viewBox="0.00 0.00 342.41 802.40">
<g id="graph0" class="graph" transform="scale(1 1) rotate(0) translate(4 798.4)">
<title>flowchart</title>
<polygon fill="#ffffff" stroke="transparent" points="-4,4 -4,-798.4 338.4127,-798.4 338.4127,4 -4,4"/>
<g id="clust1" class="cluster">
<title>cluster_VMPilot_SDK</title>
<path fill="none" stroke="#000000" d="M30,-313.6C30,-313.6 202,-313.6 202,-313.6 208,-313.6 214,-319.6 214,-325.6 214,-325.6 214,-738.4 214,-738.4 214,-744.4 208,-750.4 202,-750.4 202,-750.4 30,-750.4 30,-750.4 24,-750.4 18,-744.4 18,-738.4 18,-738.4 18,-325.6 18,-325.6 18,-319.6 24,-313.6 30,-313.6"/>
<text text-anchor="middle" x="116" y="-733.8" font-family="Times,serif" font-size="14.00" fill="#000000">VMPilot_SDK</text>
</g>
<g id="clust2" class="cluster">
<title>cluster_vmpilot_loader_projects</title>
<path fill="none" stroke="#000000" d="M20,-92.8C20,-92.8 253,-92.8 253,-92.8 259,-92.8 265,-98.8 265,-104.8 265,-104.8 265,-229.6 265,-229.6 265,-235.6 259,-241.6 253,-241.6 253,-241.6 20,-241.6 20,-241.6 14,-241.6 8,-235.6 8,-229.6 8,-229.6 8,-104.8 8,-104.8 8,-98.8 14,-92.8 20,-92.8"/>
<text text-anchor="middle" x="136.5" y="-225" font-family="Times,serif" font-size="14.00" fill="#000000">VMPilot Loader</text>
</g>
<g id="clust3" class="cluster">
<title>cluster_vmpilot_runtime_projects</title>
<path fill="none" stroke="#000000" stroke-dasharray="5,2" d="M154,-8C154,-8 242,-8 242,-8 248,-8 254,-14 254,-20 254,-20 254,-72.8 254,-72.8 254,-78.8 248,-84.8 242,-84.8 242,-84.8 154,-84.8 154,-84.8 148,-84.8 142,-78.8 142,-72.8 142,-72.8 142,-20 142,-20 142,-14 148,-8 154,-8"/>
<text text-anchor="middle" x="198" y="-68.2" font-family="Times,serif" font-size="14.00" fill="#000000">VMPilot runtime</text>
</g>
<!-- Source_Code -->
<g id="node1" class="node">
<title>Source_Code</title>
<polygon fill="none" stroke="#000000" points="159.9236,-794.4 72.0764,-794.4 72.0764,-758.4 159.9236,-758.4 159.9236,-794.4"/>
<text text-anchor="middle" x="116" y="-772.2" font-family="Times,serif" font-size="14.00" fill="#000000">Source Code</text>
</g>
<!-- Protect_Region_Segamentator -->
<g id="node2" class="node">
<title>Protect_Region_Segamentator</title>
<polygon fill="none" stroke="#000000" points="206.0688,-717.6 25.9312,-717.6 25.9312,-681.6 206.0688,-681.6 206.0688,-717.6"/>
<text text-anchor="middle" x="116" y="-695.4" font-family="Times,serif" font-size="14.00" fill="#000000">Protect Region Segamentator</text>
</g>
<!-- Source_Code&#45;&gt;Protect_Region_Segamentator -->
<g id="edge1" class="edge">
<title>Source_Code-&gt;Protect_Region_Segamentator</title>
<path fill="none" stroke="#000000" d="M116,-758.1995C116,-749.1132 116,-737.9176 116,-727.7549"/>
<polygon fill="#000000" stroke="#000000" points="119.5001,-727.6698 116,-717.6699 112.5001,-727.6699 119.5001,-727.6698"/>
</g>
<!-- Native_Code_Decomplier -->
<g id="node8" class="node">
<title>Native_Code_Decomplier</title>
<polygon fill="none" stroke="#000000" points="193.951,-645.6 38.049,-645.6 38.049,-609.6 193.951,-609.6 193.951,-645.6"/>
<text text-anchor="middle" x="116" y="-623.4" font-family="Times,serif" font-size="14.00" fill="#000000">Native Code Decomplier</text>
</g>
<!-- Protect_Region_Segamentator&#45;&gt;Native_Code_Decomplier -->
<g id="edge4" class="edge">
<title>Protect_Region_Segamentator-&gt;Native_Code_Decomplier</title>
<path fill="none" stroke="#000000" d="M98.1428,-681.4314C95.8915,-673.731 95.2288,-664.5743 96.1547,-656.0166"/>
<polygon fill="#000000" stroke="#000000" points="99.627,-656.4934 98.072,-646.0133 92.7521,-655.1757 99.627,-656.4934"/>
</g>
<!-- Protect_Region_Segamentator&#45;&gt;Native_Code_Decomplier -->
<g id="edge5" class="edge">
<title>Protect_Region_Segamentator-&gt;Native_Code_Decomplier</title>
<path fill="none" stroke="#000000" d="M110.0476,-681.4314C109.2972,-673.731 109.0763,-664.5743 109.3849,-656.0166"/>
<polygon fill="#000000" stroke="#000000" points="112.8792,-656.2161 110.024,-646.0133 105.8935,-655.7697 112.8792,-656.2161"/>
</g>
<!-- Protect_Region_Segamentator&#45;&gt;Native_Code_Decomplier -->
<g id="edge6" class="edge">
<title>Protect_Region_Segamentator-&gt;Native_Code_Decomplier</title>
<path fill="none" stroke="#000000" d="M121.9524,-681.4314C122.7028,-673.731 122.9237,-664.5743 122.6151,-656.0166"/>
<polygon fill="#000000" stroke="#000000" points="126.1065,-655.7697 121.976,-646.0133 119.1208,-656.2161 126.1065,-655.7697"/>
</g>
<!-- Protect_Region_Segamentator&#45;&gt;Native_Code_Decomplier -->
<g id="edge7" class="edge">
<title>Protect_Region_Segamentator-&gt;Native_Code_Decomplier</title>
<path fill="none" stroke="#000000" d="M133.8572,-681.4314C136.1085,-673.731 136.7712,-664.5743 135.8453,-656.0166"/>
<polygon fill="#000000" stroke="#000000" points="139.2479,-655.1757 133.928,-646.0133 132.373,-656.4934 139.2479,-655.1757"/>
</g>
<!-- CustomerConfig -->
<g id="node3" class="node">
<title>CustomerConfig</title>
<polygon fill="none" stroke="#000000" points="334.3255,-501.6 221.6745,-501.6 221.6745,-465.6 334.3255,-465.6 334.3255,-501.6"/>
<text text-anchor="middle" x="278" y="-479.4" font-family="Times,serif" font-size="14.00" fill="#000000">Customer Config</text>
</g>
<!-- Protect_Region_Encryptor -->
<g id="node4" class="node">
<title>Protect_Region_Encryptor</title>
<polygon fill="none" stroke="#000000" points="205.5744,-429.6 46.4256,-429.6 46.4256,-393.6 205.5744,-393.6 205.5744,-429.6"/>
<text text-anchor="middle" x="126" y="-407.4" font-family="Times,serif" font-size="14.00" fill="#000000">Protect Region Encryptor</text>
</g>
<!-- CustomerConfig&#45;&gt;Protect_Region_Encryptor -->
<g id="edge2" class="edge">
<title>CustomerConfig-&gt;Protect_Region_Encryptor</title>
<path fill="none" stroke="#000000" d="M239.644,-465.4314C219.4956,-455.8874 194.6248,-444.1065 173.2917,-434.0013"/>
<polygon fill="#000000" stroke="#000000" points="174.6159,-430.7558 164.0802,-429.638 171.6193,-437.082 174.6159,-430.7558"/>
</g>
<!-- VMPilot_Loader -->
<g id="node5" class="node">
<title>VMPilot_Loader</title>
<polygon fill="none" stroke="#000000" points="229.6486,-208.8 118.3514,-208.8 118.3514,-172.8 229.6486,-172.8 229.6486,-208.8"/>
<text text-anchor="middle" x="174" y="-186.6" font-family="Times,serif" font-size="14.00" fill="#000000">VMPilot_Loader</text>
</g>
<!-- CustomerConfig&#45;&gt;VMPilot_Loader -->
<g id="edge3" class="edge">
<title>CustomerConfig-&gt;VMPilot_Loader</title>
<path fill="none" stroke="#000000" d="M274.9505,-465.3155C267.7951,-424.9866 247.8474,-325.9261 213,-249.6 207.9363,-238.509 200.9148,-227.154 194.2233,-217.4168"/>
<polygon fill="#000000" stroke="#000000" points="196.8791,-215.1115 188.2365,-208.9832 191.1711,-219.1635 196.8791,-215.1115"/>
</g>
<!-- Post_Process_Assembler -->
<g id="node10" class="node">
<title>Post_Process_Assembler</title>
<polygon fill="none" stroke="#000000" points="202.2324,-357.6 55.7676,-357.6 55.7676,-321.6 202.2324,-321.6 202.2324,-357.6"/>
<text text-anchor="middle" x="129" y="-335.4" font-family="Times,serif" font-size="14.00" fill="#000000">Post-process assembler</text>
</g>
<!-- Protect_Region_Encryptor&#45;&gt;Post_Process_Assembler -->
<g id="edge11" class="edge">
<title>Protect_Region_Encryptor-&gt;Post_Process_Assembler</title>
<path fill="none" stroke="#000000" d="M126.757,-393.4314C127.0779,-385.731 127.4594,-376.5743 127.816,-368.0166"/>
<polygon fill="#000000" stroke="#000000" points="131.3133,-368.1503 128.2328,-358.0133 124.3194,-367.8589 131.3133,-368.1503"/>
</g>
<!-- VMPilot_Native -->
<g id="node11" class="node">
<title>VMPilot_Native</title>
<polygon fill="none" stroke="#000000" points="121.8227,-136.8 16.1773,-136.8 16.1773,-100.8 121.8227,-100.8 121.8227,-136.8"/>
<text text-anchor="middle" x="69" y="-114.6" font-family="Times,serif" font-size="14.00" fill="#000000">VMPilot Native</text>
</g>
<!-- VMPilot_Loader&#45;&gt;VMPilot_Native -->
<g id="edge14" class="edge">
<title>VMPilot_Loader-&gt;VMPilot_Native</title>
<path fill="none" stroke="#000000" d="M147.5041,-172.6314C134.3226,-163.5927 118.2153,-152.5476 104.0289,-142.8198"/>
<polygon fill="#000000" stroke="#000000" points="105.7141,-139.7316 95.4875,-136.9628 101.7554,-145.5047 105.7141,-139.7316"/>
</g>
<!-- VMPilot_Decrypt -->
<g id="node12" class="node">
<title>VMPilot_Decrypt</title>
<polygon fill="none" stroke="#000000" points="256.5926,-136.8 139.4074,-136.8 139.4074,-100.8 256.5926,-100.8 256.5926,-136.8"/>
<text text-anchor="middle" x="198" y="-114.6" font-family="Times,serif" font-size="14.00" fill="#000000">VMPilot_Decrypt</text>
</g>
<!-- VMPilot_Loader&#45;&gt;VMPilot_Decrypt -->
<g id="edge15" class="edge">
<title>VMPilot_Loader-&gt;VMPilot_Decrypt</title>
<path fill="none" stroke="#000000" d="M180.0562,-172.6314C182.6512,-164.8463 185.7424,-155.5729 188.6218,-146.9347"/>
<polygon fill="#000000" stroke="#000000" points="192.0203,-147.8069 191.8622,-137.2133 185.3795,-145.5933 192.0203,-147.8069"/>
</g>
<!-- Release_binary -->
<g id="node6" class="node">
<title>Release_binary</title>
<polygon fill="none" stroke="#000000" points="204.1327,-285.6 95.8673,-285.6 95.8673,-249.6 204.1327,-249.6 204.1327,-285.6"/>
<text text-anchor="middle" x="150" y="-263.4" font-family="Times,serif" font-size="14.00" fill="#000000">Release Bionary</text>
</g>
<!-- Release_binary&#45;&gt;VMPilot_Loader -->
<g id="edge13" class="edge">
<title>Release_binary-&gt;VMPilot_Loader</title>
<path fill="none" stroke="#000000" d="M155.6877,-249.3995C158.557,-240.2176 162.0995,-228.8817 165.3018,-218.6343"/>
<polygon fill="#000000" stroke="#000000" points="168.711,-219.4587 168.3532,-208.8699 162.0297,-217.3707 168.711,-219.4587"/>
</g>
<!-- Protect_Region_Obfuscator -->
<g id="node7" class="node">
<title>Protect_Region_Obfuscator</title>
<polygon fill="none" stroke="#000000" points="201.7879,-573.6 36.2121,-573.6 36.2121,-537.6 201.7879,-537.6 201.7879,-573.6"/>
<text text-anchor="middle" x="119" y="-551.4" font-family="Times,serif" font-size="14.00" fill="#000000">Protect Region Obfuscator</text>
</g>
<!-- LLVM_IR_Backend -->
<g id="node9" class="node">
<title>LLVM_IR_Backend</title>
<polygon fill="none" stroke="#000000" points="184.6345,-501.6 59.3655,-501.6 59.3655,-465.6 184.6345,-465.6 184.6345,-501.6"/>
<text text-anchor="middle" x="122" y="-479.4" font-family="Times,serif" font-size="14.00" fill="#000000">LLVM IR Backend</text>
</g>
<!-- Protect_Region_Obfuscator&#45;&gt;LLVM_IR_Backend -->
<g id="edge9" class="edge">
<title>Protect_Region_Obfuscator-&gt;LLVM_IR_Backend</title>
<path fill="none" stroke="#000000" d="M119.757,-537.4314C120.0779,-529.731 120.4594,-520.5743 120.816,-512.0166"/>
<polygon fill="#000000" stroke="#000000" points="124.3133,-512.1503 121.2328,-502.0133 117.3194,-511.8589 124.3133,-512.1503"/>
</g>
<!-- Native_Code_Decomplier&#45;&gt;Protect_Region_Obfuscator -->
<g id="edge8" class="edge">
<title>Native_Code_Decomplier-&gt;Protect_Region_Obfuscator</title>
<path fill="none" stroke="#000000" d="M116.757,-609.4314C117.0779,-601.731 117.4594,-592.5743 117.816,-584.0166"/>
<polygon fill="#000000" stroke="#000000" points="121.3133,-584.1503 118.2328,-574.0133 114.3194,-583.8589 121.3133,-584.1503"/>
</g>
<!-- LLVM_IR_Backend&#45;&gt;Protect_Region_Encryptor -->
<g id="edge10" class="edge">
<title>LLVM_IR_Backend-&gt;Protect_Region_Encryptor</title>
<path fill="none" stroke="#000000" d="M123.0094,-465.4314C123.4372,-457.731 123.9459,-448.5743 124.4213,-440.0166"/>
<polygon fill="#000000" stroke="#000000" points="127.9169,-440.192 124.977,-430.0133 120.9276,-439.8037 127.9169,-440.192"/>
</g>
<!-- Post_Process_Assembler&#45;&gt;Release_binary -->
<g id="edge12" class="edge">
<title>Post_Process_Assembler-&gt;Release_binary</title>
<path fill="none" stroke="#000000" d="M134.2992,-321.4314C136.5698,-313.6463 139.2746,-304.3729 141.794,-295.7347"/>
<polygon fill="#000000" stroke="#000000" points="145.1894,-296.5933 144.6295,-286.0133 138.4694,-294.6332 145.1894,-296.5933"/>
</g>
<!-- VMPilot_VM -->
<g id="node13" class="node">
<title>VMPilot_VM</title>
<polygon fill="none" stroke="#000000" points="243.5568,-52 152.4432,-52 152.4432,-16 243.5568,-16 243.5568,-52"/>
<text text-anchor="middle" x="198" y="-29.8" font-family="Times,serif" font-size="14.00" fill="#000000">VMPilot VM</text>
</g>
<!-- VMPilot_Decrypt&#45;&gt;VMPilot_VM -->
<g id="edge16" class="edge">
<title>VMPilot_Decrypt-&gt;VMPilot_VM</title>
<path fill="none" stroke="#000000" d="M203.6784,-100.3997C204.8032,-89.2112 205.0425,-74.6983 204.3963,-62.0954"/>
<polygon fill="#000000" stroke="#000000" points="207.8828,-61.7835 203.6452,-52.0731 200.9024,-62.3067 207.8828,-61.7835"/>
</g>
<!-- VMPilot_VM&#45;&gt;VMPilot_Decrypt -->
<g id="edge17" class="edge">
<title>VMPilot_VM-&gt;VMPilot_Decrypt</title>
<path fill="none" stroke="#000000" d="M192.3548,-52.0731C191.2127,-63.196 190.9561,-77.6946 191.585,-90.3344"/>
<polygon fill="#000000" stroke="#000000" points="188.101,-90.6818 192.3216,-100.3997 195.0823,-90.1709 188.101,-90.6818"/>
</g>
</g>
</svg>