<?xml version="1.0" encoding="UTF-8" standalone="no"?><!DOCTYPE svg PUBLIC "-//W3C//DTD SVG 1.1//EN" "http://www.w3.org/Graphics/SVG/1.1/DTD/svg11.dtd"><!-- Generated by graphviz version 2.40.1 (20161225.0304)
 --><!-- Title: flowchart Pages: 1 --><svg xmlns="http://www.w3.org/2000/svg" xmlns:xlink="http://www.w3.org/1999/xlink" width="339pt" height="802pt" viewBox="0.00 0.00 339.41 802.40">
<g id="graph0" class="graph" transform="scale(1 1) rotate(0) translate(4 798.4)">
<title>flowchart</title>
<polygon fill="#ffffff" stroke="transparent" points="-4,4 -4,-798.4 335.4127,-798.4 335.4127,4 -4,4"/>
<g id="clust1" class="cluster">
<title>cluster_VMPilot_SDK</title>
<path fill="none" stroke="#000000" d="M33,-313.6C33,-313.6 199,-313.6 199,-313.6 205,-313.6 211,-319.6 211,-325.6 211,-325.6 211,-738.4 211,-738.4 211,-744.4 205,-750.4 199,-750.4 199,-750.4 33,-750.4 33,-750.4 27,-750.4 21,-744.4 21,-738.4 21,-738.4 21,-325.6 21,-325.6 21,-319.6 27,-313.6 33,-313.6"/>
<text text-anchor="middle" x="116" y="-733.8" font-family="Times,serif" font-size="14.00" fill="#000000">VMPilot_SDK</text>
</g>
<g id="clust2" class="cluster">
<title>cluster_vmpilot_loader_projects</title>
<path fill="none" stroke="#000000" d="M20,-92.8C20,-92.8 253,-92.8 253,-92.8 259,-92.8 265,-98.8 265,-104.8 265,-104.8 265,-229.6 265,-229.6 265,-235.6 259,-241.6 253,-241.6 253,-241.6 20,-241.6 20,-241.6 14,-241.6 8,-235.6 8,-229.6 8,-229.6 8,-104.8 8,-104.8 8,-98.8 14,-92.8 20,-92.8"/>
<text text-anchor="middle" x="136.5" y="-225" font-family="Times,serif" font-size="14.00" fill="#000000">VMPilot Loader</text>
</g>
<g id="clust3" class="cluster">
<title>cluster_vmpilot_runtime_projects</title>
<path fill="none" stroke="#000000" stroke-dasharray="5,2" d="M154,-8C154,-8 242,-8 242,-8 248,-8 254,-14 254,-20 254,-20 254,-72.8 254,-72.8 254,-78.8 248,-84.8 242,-84.8 242,-84.8 154,-84.8 154,-84.8 148,-84.8 142,-78.8 142,-72.8 142,-72.8 142,-20 142,-20 142,-14 148,-8 154,-8"/>
<text text-anchor="middle" x="198" y="-68.2" font-family="Times,serif" font-size="14.00" fill="#000000">VMPilot runtime</text>
</g>
<!-- Source_Code -->
<g id="node1" class="node">
<title>Source_Code</title>
<polygon fill="none" stroke="#000000" points="159.9236,-794.4 72.0764,-794.4 72.0764,-758.4 159.9236,-758.4 159.9236,-794.4"/>
<text text-anchor="middle" x="116" y="-772.2" font-family="Times,serif" font-size="14.00" fill="#000000">Source Code</text>
</g>
<!-- Protect_Region_Segmentator -->
<g id="node2" class="node">
<title>Protect_Region_Segmentator</title>
<polygon fill="none" stroke="#000000" points="202.8543,-717.6 29.1457,-717.6 29.1457,-681.6 202.8543,-681.6 202.8543,-717.6"/>
<text text-anchor="middle" x="116" y="-695.4" font-family="Times,serif" font-size="14.00" fill="#000000">Protect Region Segmentator</text>
</g>
<!-- Source_Code&#45;&gt;Protect_Region_Segmentator -->
<g id="edge1" class="edge">
<title>Source_Code-&gt;Protect_Region_Segmentator</title>
<path fill="none" stroke="#000000" d="M116,-758.1995C116,-749.1132 116,-737.9176 116,-727.7549"/>
<polygon fill="#000000" stroke="#000000" points="119.5001,-727.6698 116,-717.6699 112.5001,-727.6699 119.5001,-727.6698"/>
</g>
<!-- Native_Code_Decompiler -->
<g id="node8" class="node">
<title>Native_Code_Decompiler</title>
<polygon fill="none" stroke="#000000" points="193.951,-645.6 38.049,-645.6 38.049,-609.6 193.951,-609.6 193.951,-645.6"/>
<text text-anchor="middle" x="116" y="-623.4" font-family="Times,serif" font-size="14.00" fill="#000000">Native Code Decompiler</text>
</g>
<!-- Protect_Region_Segmentator&#45;&gt;Native_Code_Decompiler -->
<g id="edge4" class="edge">
<title>Protect_Region_Segmentator-&gt;Native_Code_Decompiler</title>
<path fill="none" stroke="#000000" d="M98.1428,-681.4314C95.8915,-673.731 95.2288,-664.5743 96.1547,-656.0166"/>
<polygon fill="#000000" stroke="#000000" points="99.627,-656.4934 98.072,-646.0133 92.7521,-655.1757 99.627,-656.4934"/>
</g>
<!-- Protect_Region_Segmentator&#45;&gt;Native_Code_Decompiler -->
<g id="edge5" class="edge">
<title>Protect_Region_Segmentator-&gt;Native_Code_Decompiler</title>
<path fill="none" stroke="#000000" d="M110.0476,-681.4314C109.2972,-673.731 109.0763,-664.5743 109.3849,-656.0166"/>
<polygon fill="#000000" stroke="#000000" points="112.8792,-656.2161 110.024,-646.0133 105.8935,-655.7697 112.8792,-656.2161"/>
</g>
<!-- Protect_Region_Segmentator&#45;&gt;Native_Code_Decompiler -->
<g id="edge6" class="edge">
<title>Protect_Region_Segmentator-&gt;Native_Code_Decompiler</title>
<path fill="none" stroke="#000000" d="M121.9524,-681.4314C122.7028,-673.731 122.9237,-664.5743 122.6151,-656.0166"/>
<polygon fill="#000000" stroke="#000000" points="126.1065,-655.7697 121.976,-646.0133 119.1208,-656.2161 126.1065,-655.7697"/>
</g>
<!-- Protect_Region_Segmentator&#45;&gt;Native_Code_Decompiler -->
<g id="edge7" class="edge">
<title>Protect_Region_Segmentator-&gt;Native_Code_Decompiler</title>
<path fill="none" stroke="#000000" d="M133.8572,-681.4314C136.1085,-673.731 136.7712,-664.5743 135.8453,-656.0166"/>
<polygon fill="#000000" stroke="#000000" points="139.2479,-655.1757 133.928,-646.0133 132.373,-656.4934 139.2479,-655.1757"/>
</g>
<!-- CustomerConfig -->
<g id="node3" class="node">
<title>CustomerConfig</title>
<polygon fill="none" stroke="#000000" points="331.3255,-501.6 218.6745,-501.6 218.6745,-465.6 331.3255,-465.6 331.3255,-501.6"/>
<text text-anchor="middle" x="275" y="-479.4" font-family="Times,serif" font-size="14.00" fill="#000000">Customer Config</text>
</g>
<!-- Protect_Region_Encryptor -->
<g id="node4" class="node">
<title>Protect_Region_Encryptor</title>
<polygon fill="none" stroke="#000000" points="202.5744,-429.6 43.4256,-429.6 43.4256,-393.6 202.5744,-393.6 202.5744,-429.6"/>
<text text-anchor="middle" x="123" y="-407.4" font-family="Times,serif" font-size="14.00" fill="#000000">Protect Region Encryptor</text>
</g>
<!-- CustomerConfig&#45;&gt;Protect_Region_Encryptor -->
<g id="edge2" class="edge">
<title>CustomerConfig-&gt;Protect_Region_Encryptor</title>
<path fill="none" stroke="#000000" d="M236.644,-465.4314C216.4956,-455.8874 191.6248,-444.1065 170.2917,-434.0013"/>
<polygon fill="#000000" stroke="#000000" points="171.6159,-430.7558 161.0802,-429.638 168.6193,-437.082 171.6159,-430.7558"/>
</g>
<!-- VMPilot_Loader -->
<g id="node5" class="node">
<title>VMPilot_Loader</title>
<polygon fill="none" stroke="#000000" points="228.6486,-208.8 117.3514,-208.8 117.3514,-172.8 228.6486,-172.8 228.6486,-208.8"/>
<text text-anchor="middle" x="173" y="-186.6" font-family="Times,serif" font-size="14.00" fill="#000000">VMPilot_Loader</text>
</g>
<!-- CustomerConfig&#45;&gt;VMPilot_Loader -->
<g id="edge3" class="edge">
<title>CustomerConfig-&gt;VMPilot_Loader</title>
<path fill="none" stroke="#000000" d="M271.6453,-465.4104C263.8649,-425.2708 242.6473,-326.5643 209,-249.6 204.191,-238.6001 197.6244,-227.1938 191.4155,-217.3881"/>
<polygon fill="#000000" stroke="#000000" points="194.2684,-215.3553 185.8747,-208.8903 188.4048,-219.1787 194.2684,-215.3553"/>
</g>
<!-- Post_Process_Assembler -->
<g id="node10" class="node">
<title>Post_Process_Assembler</title>
<polygon fill="none" stroke="#000000" points="199.2324,-357.6 52.7676,-357.6 52.7676,-321.6 199.2324,-321.6 199.2324,-357.6"/>
<text text-anchor="middle" x="126" y="-335.4" font-family="Times,serif" font-size="14.00" fill="#000000">Post-process assembler</text>
</g>
<!-- Protect_Region_Encryptor&#45;&gt;Post_Process_Assembler -->
<g id="edge11" class="edge">
<title>Protect_Region_Encryptor-&gt;Post_Process_Assembler</title>
<path fill="none" stroke="#000000" d="M123.757,-393.4314C124.0779,-385.731 124.4594,-376.5743 124.816,-368.0166"/>
<polygon fill="#000000" stroke="#000000" points="128.3133,-368.1503 125.2328,-358.0133 121.3194,-367.8589 128.3133,-368.1503"/>
</g>
<!-- VMPilot_Native -->
<g id="node11" class="node">
<title>VMPilot_Native</title>
<polygon fill="none" stroke="#000000" points="121.8227,-136.8 16.1773,-136.8 16.1773,-100.8 121.8227,-100.8 121.8227,-136.8"/>
<text text-anchor="middle" x="69" y="-114.6" font-family="Times,serif" font-size="14.00" fill="#000000">VMPilot Native</text>
</g>
<!-- VMPilot_Loader&#45;&gt;VMPilot_Native -->
<g id="edge14" class="edge">
<title>VMPilot_Loader-&gt;VMPilot_Native</title>
<path fill="none" stroke="#000000" d="M146.7564,-172.6314C133.7005,-163.5927 117.7465,-152.5476 103.6953,-142.8198"/>
<polygon fill="#000000" stroke="#000000" points="105.4494,-139.7773 95.2352,-136.9628 101.4649,-145.5326 105.4494,-139.7773"/>
</g>
<!-- VMPilot_Decrypt -->
<g id="node12" class="node">
<title>VMPilot_Decrypt</title>
<polygon fill="none" stroke="#000000" points="256.5926,-136.8 139.4074,-136.8 139.4074,-100.8 256.5926,-100.8 256.5926,-136.8"/>
<text text-anchor="middle" x="198" y="-114.6" font-family="Times,serif" font-size="14.00" fill="#000000">VMPilot_Decrypt</text>
</g>
<!-- VMPilot_Loader&#45;&gt;VMPilot_Decrypt -->
<g id="edge15" class="edge">
<title>VMPilot_Loader-&gt;VMPilot_Decrypt</title>
<path fill="none" stroke="#000000" d="M179.3086,-172.6314C182.0117,-164.8463 185.2316,-155.5729 188.231,-146.9347"/>
<polygon fill="#000000" stroke="#000000" points="191.6327,-147.8081 191.6065,-137.2133 185.02,-145.5119 191.6327,-147.8081"/>
</g>
<!-- Release_binary -->
<g id="node6" class="node">
<title>Release_binary</title>
<polygon fill="none" stroke="#000000" points="199.6327,-285.6 98.3673,-285.6 98.3673,-249.6 199.6327,-249.6 199.6327,-285.6"/>
<text text-anchor="middle" x="149" y="-263.4" font-family="Times,serif" font-size="14.00" fill="#000000">Release Binary</text>
</g>
<!-- Release_binary&#45;&gt;VMPilot_Loader -->
<g id="edge13" class="edge">
<title>Release_binary-&gt;VMPilot_Loader</title>
<path fill="none" stroke="#000000" d="M154.6877,-249.3995C157.557,-240.2176 161.0995,-228.8817 164.3018,-218.6343"/>
<polygon fill="#000000" stroke="#000000" points="167.711,-219.4587 167.3532,-208.8699 161.0297,-217.3707 167.711,-219.4587"/>
</g>
<!-- Protect_Region_Obfuscator -->
<g id="node7" class="node">
<title>Protect_Region_Obfuscator</title>
<polygon fill="none" stroke="#000000" points="200.7879,-573.6 35.2121,-573.6 35.2121,-537.6 200.7879,-537.6 200.7879,-573.6"/>
<text text-anchor="middle" x="118" y="-551.4" font-family="Times,serif" font-size="14.00" fill="#000000">Protect Region Obfuscator</text>
</g>
<!-- LLVM_IR_Backend -->
<g id="node9" class="node">
<title>LLVM_IR_Backend</title>
<polygon fill="none" stroke="#000000" points="182.6345,-501.6 57.3655,-501.6 57.3655,-465.6 182.6345,-465.6 182.6345,-501.6"/>
<text text-anchor="middle" x="120" y="-479.4" font-family="Times,serif" font-size="14.00" fill="#000000">LLVM IR Backend</text>
</g>
<!-- Protect_Region_Obfuscator&#45;&gt;LLVM_IR_Backend -->
<g id="edge9" class="edge">
<title>Protect_Region_Obfuscator-&gt;LLVM_IR_Backend</title>
<path fill="none" stroke="#000000" d="M118.5047,-537.4314C118.7186,-529.731 118.9729,-520.5743 119.2106,-512.0166"/>
<polygon fill="#000000" stroke="#000000" points="122.7094,-512.1066 119.4885,-502.0133 115.7121,-511.9122 122.7094,-512.1066"/>
</g>
<!-- Native_Code_Decompiler&#45;&gt;Protect_Region_Obfuscator -->
<g id="edge8" class="edge">
<title>Native_Code_Decompiler-&gt;Protect_Region_Obfuscator</title>
<path fill="none" stroke="#000000" d="M116.5047,-609.4314C116.7186,-601.731 116.9729,-592.5743 117.2106,-584.0166"/>
<polygon fill="#000000" stroke="#000000" points="120.7094,-584.1066 117.4885,-574.0133 113.7121,-583.9122 120.7094,-584.1066"/>
</g>
<!-- LLVM_IR_Backend&#45;&gt;Protect_Region_Encryptor -->
<g id="edge10" class="edge">
<title>LLVM_IR_Backend-&gt;Protect_Region_Encryptor</title>
<path fill="none" stroke="#000000" d="M120.757,-465.4314C121.0779,-457.731 121.4594,-448.5743 121.816,-440.0166"/>
<polygon fill="#000000" stroke="#000000" points="125.3133,-440.1503 122.2328,-430.0133 118.3194,-439.8589 125.3133,-440.1503"/>
</g>
<!-- Post_Process_Assembler&#45;&gt;Release_binary -->
<g id="edge12" class="edge">
<title>Post_Process_Assembler-&gt;Release_binary</title>
<path fill="none" stroke="#000000" d="M131.8039,-321.4314C134.2908,-313.6463 137.2531,-304.3729 140.0125,-295.7347"/>
<polygon fill="#000000" stroke="#000000" points="143.409,-296.6041 143.118,-286.0133 136.7409,-294.474 143.409,-296.6041"/>
</g>
<!-- VMPilot_VM -->
<g id="node13" class="node">
<title>VMPilot_VM</title>
<polygon fill="none" stroke="#000000" points="243.5568,-52 152.4432,-52 152.4432,-16 243.5568,-16 243.5568,-52"/>
<text text-anchor="middle" x="198" y="-29.8" font-family="Times,serif" font-size="14.00" fill="#000000">VMPilot VM</text>
</g>
<!-- VMPilot_Decrypt&#45;&gt;VMPilot_VM -->
<g id="edge16" class="edge">
<title>VMPilot_Decrypt-&gt;VMPilot_VM</title>
<path fill="none" stroke="#000000" d="M203.6784,-100.3997C204.8032,-89.2112 205.0425,-74.6983 204.3963,-62.0954"/>
<polygon fill="#000000" stroke="#000000" points="207.8828,-61.7835 203.6452,-52.0731 200.9024,-62.3067 207.8828,-61.7835"/>
</g>
<!-- VMPilot_VM&#45;&gt;VMPilot_Decrypt -->
<g id="edge17" class="edge">
<title>VMPilot_VM-&gt;VMPilot_Decrypt</title>
<path fill="none" stroke="#000000" d="M192.3548,-52.0731C191.2127,-63.196 190.9561,-77.6946 191.585,-90.3344"/>
<polygon fill="#000000" stroke="#000000" points="188.101,-90.6818 192.3216,-100.3997 195.0823,-90.1709 188.101,-90.6818"/>
</g>
</g>
</svg>